<?xml version="1.0" encoding="UTF-8" standalone="no"?>
<!DOCTYPE svg PUBLIC "-//W3C//DTD SVG 1.1//EN"
 "http://www.w3.org/Graphics/SVG/1.1/DTD/svg11.dtd">
<!-- Generated by graphviz version 3.0.0 (20220226.1711)
 -->
<!-- Title: dependencies Pages: 1 -->
<svg width="322pt" height="174pt"
 viewBox="0.00 0.00 322.00 173.80" xmlns="http://www.w3.org/2000/svg" xmlns:xlink="http://www.w3.org/1999/xlink">
<g id="graph0" class="graph" transform="scale(1 1) rotate(0) translate(4 169.8)">
<title>dependencies</title>
<polygon fill="white" stroke="transparent" points="-4,4 -4,-169.8 318,-169.8 318,4 -4,4"/>
<text text-anchor="middle" x="157" y="-8.2" font-family="sans-serif" font-size="14.00">dependencies</text>
<g id="clust1" class="cluster">
<title>cluster_GenerosModule</title>
<polygon fill="none" stroke="black" stroke-dasharray="1,5" points="8,-32.8 8,-157.8 306,-157.8 306,-32.8 8,-32.8"/>
</g>
<g id="clust6" class="cluster">
<title>cluster_GenerosModule_providers</title>
<polygon fill="none" stroke="black" points="138,-40.8 138,-92.8 298,-92.8 298,-40.8 138,-40.8"/>
</g>
<g id="clust3" class="cluster">
<title>cluster_GenerosModule_imports</title>
<polygon fill="none" stroke="black" points="16,-40.8 16,-92.8 130,-92.8 130,-40.8 16,-40.8"/>
</g>
<!-- PrismaModule -->
<g id="node1" class="node">
<title>PrismaModule</title>
<polygon fill="#8dd3c7" stroke="black" points="122.44,-84.8 119.44,-88.8 98.44,-88.8 95.44,-84.8 23.56,-84.8 23.56,-48.8 122.44,-48.8 122.44,-84.8"/>
<text text-anchor="middle" x="73" y="-62.6" font-family="Times,serif" font-size="14.00">PrismaModule</text>
</g>
<!-- GenerosModule -->
<g id="node2" class="node">
<title>GenerosModule</title>
<polygon fill="#8dd3c7" stroke="black" points="198.2,-149.8 195.2,-153.8 174.2,-153.8 171.2,-149.8 91.8,-149.8 91.8,-113.8 198.2,-113.8 198.2,-149.8"/>
<text text-anchor="middle" x="145" y="-127.6" font-family="Times,serif" font-size="14.00">GenerosModule</text>
</g>
<!-- PrismaModule&#45;&gt;GenerosModule -->
<g id="edge1" class="edge">
<title>PrismaModule&#45;&gt;GenerosModule</title>
<path fill="none" stroke="black" d="M107.06,-84.91C107.06,-84.91 107.06,-103.79 107.06,-103.79"/>
<polygon fill="black" stroke="black" points="103.56,-103.79 107.06,-113.79 110.56,-103.79 103.56,-103.79"/>
</g>
<!-- GenerosService -->
<g id="node3" class="node">
<title>GenerosService</title>
<ellipse fill="#fdb462" stroke="black" cx="218" cy="-66.8" rx="72.34" ry="18"/>
<text text-anchor="middle" x="218" y="-62.6" font-family="Times,serif" font-size="14.00">GenerosService</text>
</g>
<!-- GenerosService&#45;&gt;GenerosModule -->
<g id="edge2" class="edge">
<title>GenerosService&#45;&gt;GenerosModule</title>
<path fill="none" stroke="black" d="M171.96,-80.9C171.96,-80.9 171.96,-103.52 171.96,-103.52"/>
<polygon fill="black" stroke="black" points="168.46,-103.52 171.96,-113.52 175.46,-103.52 168.46,-103.52"/>
</g>
</g>
</svg>
