<?xml version="1.0" encoding="UTF-8" standalone="no"?>
<!DOCTYPE svg PUBLIC "-//W3C//DTD SVG 1.1//EN"
 "http://www.w3.org/Graphics/SVG/1.1/DTD/svg11.dtd">
<!-- Generated by graphviz version 3.0.0 (20220226.1711)
 -->
<!-- Title: dependencies Pages: 1 -->
<svg width="1143pt" height="174pt"
 viewBox="0.00 0.00 1143.00 173.80" xmlns="http://www.w3.org/2000/svg" xmlns:xlink="http://www.w3.org/1999/xlink">
<g id="graph0" class="graph" transform="scale(1 1) rotate(0) translate(4 169.8)">
<title>dependencies</title>
<polygon fill="white" stroke="transparent" points="-4,4 -4,-169.8 1139,-169.8 1139,4 -4,4"/>
<text text-anchor="middle" x="567.5" y="-8.2" font-family="sans-serif" font-size="14.00">dependencies</text>
<g id="clust1" class="cluster">
<title>cluster_AppModule</title>
<polygon fill="none" stroke="black" stroke-dasharray="1,5" points="8,-32.8 8,-157.8 1127,-157.8 1127,-32.8 8,-32.8"/>
</g>
<g id="clust6" class="cluster">
<title>cluster_AppModule_providers</title>
<polygon fill="none" stroke="black" points="838,-40.8 838,-92.8 1119,-92.8 1119,-40.8 838,-40.8"/>
</g>
<g id="clust3" class="cluster">
<title>cluster_AppModule_imports</title>
<polygon fill="none" stroke="black" points="16,-40.8 16,-92.8 830,-92.8 830,-40.8 16,-40.8"/>
</g>
<!-- AuthModule -->
<g id="node1" class="node">
<title>AuthModule</title>
<polygon fill="#8dd3c7" stroke="black" points="821.55,-84.8 818.55,-88.8 797.55,-88.8 794.55,-84.8 734.45,-84.8 734.45,-48.8 821.55,-48.8 821.55,-84.8"/>
<text text-anchor="middle" x="778" y="-62.6" font-family="Times,serif" font-size="14.00">AuthModule</text>
</g>
<!-- AppModule -->
<g id="node8" class="node">
<title>AppModule</title>
<polygon fill="#8dd3c7" stroke="black" points="586.66,-149.8 583.66,-153.8 562.66,-153.8 559.66,-149.8 503.34,-149.8 503.34,-113.8 586.66,-113.8 586.66,-149.8"/>
<text text-anchor="middle" x="545" y="-127.6" font-family="Times,serif" font-size="14.00">AppModule</text>
</g>
<!-- AuthModule&#45;&gt;AppModule -->
<g id="edge1" class="edge">
<title>AuthModule&#45;&gt;AppModule</title>
<path fill="none" stroke="black" d="M778,-85.07C778,-103.36 778,-128.8 778,-128.8 778,-128.8 596.92,-128.8 596.92,-128.8"/>
<polygon fill="black" stroke="black" points="596.92,-125.3 586.92,-128.8 596.92,-132.3 596.92,-125.3"/>
</g>
<!-- FavoriteModule -->
<g id="node2" class="node">
<title>FavoriteModule</title>
<polygon fill="#8dd3c7" stroke="black" points="716.21,-84.8 713.21,-88.8 692.21,-88.8 689.21,-84.8 609.79,-84.8 609.79,-48.8 716.21,-48.8 716.21,-84.8"/>
<text text-anchor="middle" x="663" y="-62.6" font-family="Times,serif" font-size="14.00">FavoriteModule</text>
</g>
<!-- FavoriteModule&#45;&gt;AppModule -->
<g id="edge2" class="edge">
<title>FavoriteModule&#45;&gt;AppModule</title>
<path fill="none" stroke="black" d="M663,-84.81C663,-100.85 663,-121.8 663,-121.8 663,-121.8 596.93,-121.8 596.93,-121.8"/>
<polygon fill="black" stroke="black" points="596.93,-118.3 586.93,-121.8 596.93,-125.3 596.93,-118.3"/>
</g>
<!-- GameModule -->
<g id="node3" class="node">
<title>GameModule</title>
<polygon fill="#8dd3c7" stroke="black" points="591.48,-84.8 588.48,-88.8 567.48,-88.8 564.48,-84.8 498.52,-84.8 498.52,-48.8 591.48,-48.8 591.48,-84.8"/>
<text text-anchor="middle" x="545" y="-62.6" font-family="Times,serif" font-size="14.00">GameModule</text>
</g>
<!-- GameModule&#45;&gt;AppModule -->
<g id="edge3" class="edge">
<title>GameModule&#45;&gt;AppModule</title>
<path fill="none" stroke="black" d="M545,-84.91C545,-84.91 545,-103.79 545,-103.79"/>
<polygon fill="black" stroke="black" points="541.5,-103.79 545,-113.79 548.5,-103.79 541.5,-103.79"/>
</g>
<!-- GenerosModule -->
<g id="node4" class="node">
<title>GenerosModule</title>
<polygon fill="#8dd3c7" stroke="black" points="480.2,-84.8 477.2,-88.8 456.2,-88.8 453.2,-84.8 373.8,-84.8 373.8,-48.8 480.2,-48.8 480.2,-84.8"/>
<text text-anchor="middle" x="427" y="-62.6" font-family="Times,serif" font-size="14.00">GenerosModule</text>
</g>
<!-- GenerosModule&#45;&gt;AppModule -->
<g id="edge4" class="edge">
<title>GenerosModule&#45;&gt;AppModule</title>
<path fill="none" stroke="black" d="M427,-84.81C427,-100.85 427,-121.8 427,-121.8 427,-121.8 493.07,-121.8 493.07,-121.8"/>
<polygon fill="black" stroke="black" points="493.07,-125.3 503.07,-121.8 493.07,-118.3 493.07,-125.3"/>
</g>
<!-- HomepageModule -->
<g id="node5" class="node">
<title>HomepageModule</title>
<polygon fill="#8dd3c7" stroke="black" points="356.19,-84.8 353.19,-88.8 332.19,-88.8 329.19,-84.8 235.81,-84.8 235.81,-48.8 356.19,-48.8 356.19,-84.8"/>
<text text-anchor="middle" x="296" y="-62.6" font-family="Times,serif" font-size="14.00">HomepageModule</text>
</g>
<!-- HomepageModule&#45;&gt;AppModule -->
<g id="edge5" class="edge">
<title>HomepageModule&#45;&gt;AppModule</title>
<path fill="none" stroke="black" d="M296,-85.07C296,-103.36 296,-128.8 296,-128.8 296,-128.8 493.32,-128.8 493.32,-128.8"/>
<polygon fill="black" stroke="black" points="493.32,-132.3 503.32,-128.8 493.32,-125.3 493.32,-132.3"/>
</g>
<!-- PerfilModule -->
<g id="node6" class="node">
<title>PerfilModule</title>
<polygon fill="#8dd3c7" stroke="black" points="218.16,-84.8 215.16,-88.8 194.16,-88.8 191.16,-84.8 127.84,-84.8 127.84,-48.8 218.16,-48.8 218.16,-84.8"/>
<text text-anchor="middle" x="173" y="-62.6" font-family="Times,serif" font-size="14.00">PerfilModule</text>
</g>
<!-- PerfilModule&#45;&gt;AppModule -->
<g id="edge6" class="edge">
<title>PerfilModule&#45;&gt;AppModule</title>
<path fill="none" stroke="black" d="M173,-84.93C173,-105.37 173,-135.8 173,-135.8 173,-135.8 493.05,-135.8 493.05,-135.8"/>
<polygon fill="black" stroke="black" points="493.05,-139.3 503.05,-135.8 493.05,-132.3 493.05,-139.3"/>
</g>
<!-- UserModule -->
<g id="node7" class="node">
<title>UserModule</title>
<polygon fill="#8dd3c7" stroke="black" points="109.99,-84.8 106.99,-88.8 85.99,-88.8 82.99,-84.8 24.01,-84.8 24.01,-48.8 109.99,-48.8 109.99,-84.8"/>
<text text-anchor="middle" x="67" y="-62.6" font-family="Times,serif" font-size="14.00">UserModule</text>
</g>
<!-- UserModule&#45;&gt;AppModule -->
<g id="edge7" class="edge">
<title>UserModule&#45;&gt;AppModule</title>
<path fill="none" stroke="black" d="M67,-84.81C67,-107.29 67,-142.8 67,-142.8 67,-142.8 493,-142.8 493,-142.8"/>
<polygon fill="black" stroke="black" points="493,-146.3 503,-142.8 493,-139.3 493,-146.3"/>
</g>
<!-- AppService -->
<g id="node9" class="node">
<title>AppService</title>
<ellipse fill="#fdb462" stroke="black" cx="1054" cy="-66.8" rx="56.75" ry="18"/>
<text text-anchor="middle" x="1054" y="-62.6" font-family="Times,serif" font-size="14.00">AppService</text>
</g>
<!-- AppService&#45;&gt;AppModule -->
<g id="edge8" class="edge">
<title>AppService&#45;&gt;AppModule</title>
<path fill="none" stroke="black" d="M1054,-84.81C1054,-107.29 1054,-142.8 1054,-142.8 1054,-142.8 597.09,-142.8 597.09,-142.8"/>
<polygon fill="black" stroke="black" points="597.09,-139.3 587.09,-142.8 597.09,-146.3 597.09,-139.3"/>
</g>
<!-- PrismaService -->
<g id="node10" class="node">
<title>PrismaService</title>
<ellipse fill="#fdb462" stroke="black" cx="913" cy="-66.8" rx="66.64" ry="18"/>
<text text-anchor="middle" x="913" y="-62.6" font-family="Times,serif" font-size="14.00">PrismaService</text>
</g>
<!-- PrismaService&#45;&gt;AppModule -->
<g id="edge9" class="edge">
<title>PrismaService&#45;&gt;AppModule</title>
<path fill="none" stroke="black" d="M913,-84.93C913,-105.37 913,-135.8 913,-135.8 913,-135.8 596.86,-135.8 596.86,-135.8"/>
<polygon fill="black" stroke="black" points="596.86,-132.3 586.86,-135.8 596.86,-139.3 596.86,-132.3"/>
</g>
</g>
</svg>
