<?xml version="1.0" encoding="UTF-8" standalone="no"?>
<!DOCTYPE svg PUBLIC "-//W3C//DTD SVG 1.1//EN"
 "http://www.w3.org/Graphics/SVG/1.1/DTD/svg11.dtd">
<!-- Generated by graphviz version 3.0.0 (20220226.1711)
 -->
<!-- Title: dependencies Pages: 1 -->
<svg width="1634pt" height="250pt"
 viewBox="0.00 0.00 1634.00 249.80" xmlns="http://www.w3.org/2000/svg" xmlns:xlink="http://www.w3.org/1999/xlink">
<g id="graph0" class="graph" transform="scale(1 1) rotate(0) translate(4 245.8)">
<title>dependencies</title>
<polygon fill="white" stroke="transparent" points="-4,4 -4,-245.8 1630,-245.8 1630,4 -4,4"/>
<text text-anchor="middle" x="813" y="-8.2" font-family="sans-serif" font-size="14.00">dependencies</text>
<g id="clust1" class="cluster">
<title>cluster_AppModule</title>
<polygon fill="none" stroke="black" stroke-dasharray="1,5" points="359,-108.8 359,-233.8 1478,-233.8 1478,-108.8 359,-108.8"/>
</g>
<g id="clust3" class="cluster">
<title>cluster_AppModule_imports</title>
<polygon fill="none" stroke="black" points="367,-116.8 367,-168.8 1181,-168.8 1181,-116.8 367,-116.8"/>
</g>
<g id="clust6" class="cluster">
<title>cluster_AppModule_providers</title>
<polygon fill="none" stroke="black" points="1189,-116.8 1189,-168.8 1470,-168.8 1470,-116.8 1189,-116.8"/>
</g>
<g id="clust7" class="cluster">
<title>cluster_AuthModule</title>
<polygon fill="none" stroke="black" stroke-dasharray="1,5" points="1064,-32.8 1064,-100.8 1468,-100.8 1468,-32.8 1064,-32.8"/>
</g>
<g id="clust9" class="cluster">
<title>cluster_AuthModule_imports</title>
<polygon fill="none" stroke="black" points="1072,-40.8 1072,-92.8 1186,-92.8 1186,-40.8 1072,-40.8"/>
</g>
<g id="clust12" class="cluster">
<title>cluster_AuthModule_providers</title>
<polygon fill="none" stroke="black" points="1194,-40.8 1194,-92.8 1460,-92.8 1460,-40.8 1194,-40.8"/>
</g>
<g id="clust13" class="cluster">
<title>cluster_FavoriteModule</title>
<polygon fill="none" stroke="black" stroke-dasharray="1,5" points="8,-32.8 8,-100.8 184,-100.8 184,-32.8 8,-32.8"/>
</g>
<g id="clust18" class="cluster">
<title>cluster_FavoriteModule_providers</title>
<polygon fill="none" stroke="black" points="16,-40.8 16,-92.8 176,-92.8 176,-40.8 16,-40.8"/>
</g>
<g id="clust19" class="cluster">
<title>cluster_GameModule</title>
<polygon fill="none" stroke="black" stroke-dasharray="1,5" points="192,-32.8 192,-100.8 350,-100.8 350,-32.8 192,-32.8"/>
</g>
<g id="clust24" class="cluster">
<title>cluster_GameModule_providers</title>
<polygon fill="none" stroke="black" points="200,-40.8 200,-92.8 342,-92.8 342,-40.8 200,-40.8"/>
</g>
<g id="clust25" class="cluster">
<title>cluster_GenerosModule</title>
<polygon fill="none" stroke="black" stroke-dasharray="1,5" points="358,-32.8 358,-100.8 534,-100.8 534,-32.8 358,-32.8"/>
</g>
<g id="clust30" class="cluster">
<title>cluster_GenerosModule_providers</title>
<polygon fill="none" stroke="black" points="366,-40.8 366,-92.8 526,-92.8 526,-40.8 366,-40.8"/>
</g>
<g id="clust31" class="cluster">
<title>cluster_HomepageModule</title>
<polygon fill="none" stroke="black" stroke-dasharray="1,5" points="542,-32.8 542,-100.8 738,-100.8 738,-32.8 542,-32.8"/>
</g>
<g id="clust36" class="cluster">
<title>cluster_HomepageModule_providers</title>
<polygon fill="none" stroke="black" points="550,-40.8 550,-92.8 730,-92.8 730,-40.8 550,-40.8"/>
</g>
<g id="clust37" class="cluster">
<title>cluster_PerfilModule</title>
<polygon fill="none" stroke="black" stroke-dasharray="1,5" points="746,-32.8 746,-100.8 900,-100.8 900,-32.8 746,-32.8"/>
</g>
<g id="clust42" class="cluster">
<title>cluster_PerfilModule_providers</title>
<polygon fill="none" stroke="black" points="754,-40.8 754,-92.8 892,-92.8 892,-40.8 754,-40.8"/>
</g>
<g id="clust43" class="cluster">
<title>cluster_PrismaModule</title>
<polygon fill="none" stroke="black" stroke-dasharray="1,5" points="1486,-108.8 1486,-176.8 1618,-176.8 1618,-108.8 1486,-108.8"/>
</g>
<g id="clust46" class="cluster">
<title>cluster_PrismaModule_exports</title>
<polygon fill="none" stroke="black" points="1494,-116.8 1494,-168.8 1610,-168.8 1610,-116.8 1494,-116.8"/>
</g>
<g id="clust49" class="cluster">
<title>cluster_UserModule</title>
<polygon fill="none" stroke="black" stroke-dasharray="1,5" points="908,-32.8 908,-100.8 1056,-100.8 1056,-32.8 908,-32.8"/>
</g>
<g id="clust54" class="cluster">
<title>cluster_UserModule_providers</title>
<polygon fill="none" stroke="black" points="916,-40.8 916,-92.8 1048,-92.8 1048,-40.8 916,-40.8"/>
</g>
<!-- AuthModule -->
<g id="node1" class="node">
<title>AuthModule</title>
<polygon fill="#8dd3c7" stroke="black" points="1172.55,-160.8 1169.55,-164.8 1148.55,-164.8 1145.55,-160.8 1085.45,-160.8 1085.45,-124.8 1172.55,-124.8 1172.55,-160.8"/>
<text text-anchor="middle" x="1129" y="-138.6" font-family="Times,serif" font-size="14.00">AuthModule</text>
</g>
<!-- AppModule -->
<g id="node8" class="node">
<title>AppModule</title>
<polygon fill="#8dd3c7" stroke="black" points="959.66,-225.8 956.66,-229.8 935.66,-229.8 932.66,-225.8 876.34,-225.8 876.34,-189.8 959.66,-189.8 959.66,-225.8"/>
<text text-anchor="middle" x="918" y="-203.6" font-family="Times,serif" font-size="14.00">AppModule</text>
</g>
<!-- AuthModule&#45;&gt;AppModule -->
<g id="edge1" class="edge">
<title>AuthModule&#45;&gt;AppModule</title>
<path fill="none" stroke="black" d="M1129,-161.07C1129,-179.36 1129,-204.8 1129,-204.8 1129,-204.8 969.69,-204.8 969.69,-204.8"/>
<polygon fill="black" stroke="black" points="969.69,-201.3 959.69,-204.8 969.69,-208.3 969.69,-201.3"/>
</g>
<!-- FavoriteModule -->
<g id="node2" class="node">
<title>FavoriteModule</title>
<polygon fill="#8dd3c7" stroke="black" points="481.21,-160.8 478.21,-164.8 457.21,-164.8 454.21,-160.8 374.79,-160.8 374.79,-124.8 481.21,-124.8 481.21,-160.8"/>
<text text-anchor="middle" x="428" y="-138.6" font-family="Times,serif" font-size="14.00">FavoriteModule</text>
</g>
<!-- FavoriteModule&#45;&gt;AppModule -->
<g id="edge2" class="edge">
<title>FavoriteModule&#45;&gt;AppModule</title>
<path fill="none" stroke="black" d="M428,-160.81C428,-183.29 428,-218.8 428,-218.8 428,-218.8 866.22,-218.8 866.22,-218.8"/>
<polygon fill="black" stroke="black" points="866.22,-222.3 876.22,-218.8 866.22,-215.3 866.22,-222.3"/>
</g>
<!-- GameModule -->
<g id="node3" class="node">
<title>GameModule</title>
<polygon fill="#8dd3c7" stroke="black" points="592.48,-160.8 589.48,-164.8 568.48,-164.8 565.48,-160.8 499.52,-160.8 499.52,-124.8 592.48,-124.8 592.48,-160.8"/>
<text text-anchor="middle" x="546" y="-138.6" font-family="Times,serif" font-size="14.00">GameModule</text>
</g>
<!-- GameModule&#45;&gt;AppModule -->
<g id="edge3" class="edge">
<title>GameModule&#45;&gt;AppModule</title>
<path fill="none" stroke="black" d="M546,-160.93C546,-181.37 546,-211.8 546,-211.8 546,-211.8 866.05,-211.8 866.05,-211.8"/>
<polygon fill="black" stroke="black" points="866.05,-215.3 876.05,-211.8 866.05,-208.3 866.05,-215.3"/>
</g>
<!-- GenerosModule -->
<g id="node4" class="node">
<title>GenerosModule</title>
<polygon fill="#8dd3c7" stroke="black" points="717.2,-160.8 714.2,-164.8 693.2,-164.8 690.2,-160.8 610.8,-160.8 610.8,-124.8 717.2,-124.8 717.2,-160.8"/>
<text text-anchor="middle" x="664" y="-138.6" font-family="Times,serif" font-size="14.00">GenerosModule</text>
</g>
<!-- GenerosModule&#45;&gt;AppModule -->
<g id="edge4" class="edge">
<title>GenerosModule&#45;&gt;AppModule</title>
<path fill="none" stroke="black" d="M664,-161.07C664,-179.36 664,-204.8 664,-204.8 664,-204.8 866.06,-204.8 866.06,-204.8"/>
<polygon fill="black" stroke="black" points="866.06,-208.3 876.06,-204.8 866.06,-201.3 866.06,-208.3"/>
</g>
<!-- HomepageModule -->
<g id="node5" class="node">
<title>HomepageModule</title>
<polygon fill="#8dd3c7" stroke="black" points="855.19,-160.8 852.19,-164.8 831.19,-164.8 828.19,-160.8 734.81,-160.8 734.81,-124.8 855.19,-124.8 855.19,-160.8"/>
<text text-anchor="middle" x="795" y="-138.6" font-family="Times,serif" font-size="14.00">HomepageModule</text>
</g>
<!-- HomepageModule&#45;&gt;AppModule -->
<g id="edge5" class="edge">
<title>HomepageModule&#45;&gt;AppModule</title>
<path fill="none" stroke="black" d="M795,-160.81C795,-176.85 795,-197.8 795,-197.8 795,-197.8 866.01,-197.8 866.01,-197.8"/>
<polygon fill="black" stroke="black" points="866.01,-201.3 876.01,-197.8 866.01,-194.3 866.01,-201.3"/>
</g>
<!-- PerfilModule -->
<g id="node6" class="node">
<title>PerfilModule</title>
<polygon fill="#8dd3c7" stroke="black" points="963.16,-160.8 960.16,-164.8 939.16,-164.8 936.16,-160.8 872.84,-160.8 872.84,-124.8 963.16,-124.8 963.16,-160.8"/>
<text text-anchor="middle" x="918" y="-138.6" font-family="Times,serif" font-size="14.00">PerfilModule</text>
</g>
<!-- PerfilModule&#45;&gt;AppModule -->
<g id="edge6" class="edge">
<title>PerfilModule&#45;&gt;AppModule</title>
<path fill="none" stroke="black" d="M918,-160.91C918,-160.91 918,-179.79 918,-179.79"/>
<polygon fill="black" stroke="black" points="914.5,-179.79 918,-189.79 921.5,-179.79 914.5,-179.79"/>
</g>
<!-- UserModule -->
<g id="node7" class="node">
<title>UserModule</title>
<polygon fill="#8dd3c7" stroke="black" points="1066.99,-160.8 1063.99,-164.8 1042.99,-164.8 1039.99,-160.8 981.01,-160.8 981.01,-124.8 1066.99,-124.8 1066.99,-160.8"/>
<text text-anchor="middle" x="1024" y="-138.6" font-family="Times,serif" font-size="14.00">UserModule</text>
</g>
<!-- UserModule&#45;&gt;AppModule -->
<g id="edge7" class="edge">
<title>UserModule&#45;&gt;AppModule</title>
<path fill="none" stroke="black" d="M1024,-160.81C1024,-176.85 1024,-197.8 1024,-197.8 1024,-197.8 969.89,-197.8 969.89,-197.8"/>
<polygon fill="black" stroke="black" points="969.89,-194.3 959.89,-197.8 969.89,-201.3 969.89,-194.3"/>
</g>
<!-- AppService -->
<g id="node9" class="node">
<title>AppService</title>
<ellipse fill="#fdb462" stroke="black" cx="1405" cy="-142.8" rx="56.75" ry="18"/>
<text text-anchor="middle" x="1405" y="-138.6" font-family="Times,serif" font-size="14.00">AppService</text>
</g>
<!-- AppService&#45;&gt;AppModule -->
<g id="edge8" class="edge">
<title>AppService&#45;&gt;AppModule</title>
<path fill="none" stroke="black" d="M1405,-160.81C1405,-183.29 1405,-218.8 1405,-218.8 1405,-218.8 969.94,-218.8 969.94,-218.8"/>
<polygon fill="black" stroke="black" points="969.94,-215.3 959.94,-218.8 969.94,-222.3 969.94,-215.3"/>
</g>
<!-- PrismaService -->
<g id="node10" class="node">
<title>PrismaService</title>
<ellipse fill="#fdb462" stroke="black" cx="1264" cy="-142.8" rx="66.64" ry="18"/>
<text text-anchor="middle" x="1264" y="-138.6" font-family="Times,serif" font-size="14.00">PrismaService</text>
</g>
<!-- PrismaService&#45;&gt;AppModule -->
<g id="edge9" class="edge">
<title>PrismaService&#45;&gt;AppModule</title>
<path fill="none" stroke="black" d="M1264,-160.93C1264,-181.37 1264,-211.8 1264,-211.8 1264,-211.8 969.74,-211.8 969.74,-211.8"/>
<polygon fill="black" stroke="black" points="969.74,-208.3 959.74,-211.8 969.74,-215.3 969.74,-208.3"/>
</g>
<!-- PrismaModule -->
<g id="node11" class="node">
<title>PrismaModule</title>
<polygon fill="#8dd3c7" stroke="black" points="1178.44,-84.8 1175.44,-88.8 1154.44,-88.8 1151.44,-84.8 1079.56,-84.8 1079.56,-48.8 1178.44,-48.8 1178.44,-84.8"/>
<text text-anchor="middle" x="1129" y="-62.6" font-family="Times,serif" font-size="14.00">PrismaModule</text>
</g>
<!-- PrismaService&#45;&gt;PrismaModule -->
<g id="edge24" class="edge">
<title>PrismaService&#45;&gt;PrismaModule</title>
<path fill="none" stroke="black" d="M1200.62,-136.8C1191.18,-136.8 1184.54,-136.8 1184.54,-136.8 1184.54,-136.8 1184.54,-72.8 1184.54,-72.8 1184.54,-72.8 1183.95,-72.8 1183.95,-72.8"/>
<polygon fill="black" stroke="black" points="1188.6,-69.3 1178.6,-72.8 1188.6,-76.3 1188.6,-69.3"/>
</g>
<!-- PrismaModule&#45;&gt;AuthModule -->
<g id="edge10" class="edge">
<title>PrismaModule&#45;&gt;AuthModule</title>
<path fill="none" stroke="black" d="M1143.59,-84.81C1143.59,-84.81 1143.59,-114.65 1143.59,-114.65"/>
<polygon fill="black" stroke="black" points="1140.09,-114.65 1143.59,-124.65 1147.09,-114.65 1140.09,-114.65"/>
</g>
<!-- PrismaModule&#45;&gt;FavoriteModule -->
<g id="edge13" class="edge">
<title>PrismaModule&#45;&gt;FavoriteModule</title>
<path fill="none" stroke="black" d="M1094.95,-84.97C1094.95,-87.25 1094.95,-88.8 1094.95,-88.8 1094.95,-88.8 428,-88.8 428,-88.8 428,-88.8 428,-114.52 428,-114.52"/>
<polygon fill="black" stroke="black" points="424.5,-114.52 428,-124.52 431.5,-114.52 424.5,-114.52"/>
</g>
<!-- PrismaModule&#45;&gt;GameModule -->
<g id="edge15" class="edge">
<title>PrismaModule&#45;&gt;GameModule</title>
<path fill="none" stroke="black" d="M1104.68,-84.86C1104.68,-89.29 1104.68,-92.8 1104.68,-92.8 1104.68,-92.8 575.33,-92.8 575.33,-92.8 575.33,-92.8 575.33,-114.75 575.33,-114.75"/>
<polygon fill="black" stroke="black" points="571.83,-114.75 575.33,-124.75 578.83,-114.75 571.83,-114.75"/>
</g>
<!-- PrismaModule&#45;&gt;GenerosModule -->
<g id="edge17" class="edge">
<title>PrismaModule&#45;&gt;GenerosModule</title>
<path fill="none" stroke="black" d="M1114.41,-84.94C1114.41,-91.26 1114.41,-96.8 1114.41,-96.8 1114.41,-96.8 681.7,-96.8 681.7,-96.8 681.7,-96.8 681.7,-114.62 681.7,-114.62"/>
<polygon fill="black" stroke="black" points="678.2,-114.62 681.7,-124.62 685.2,-114.62 678.2,-114.62"/>
</g>
<!-- PrismaModule&#45;&gt;HomepageModule -->
<g id="edge19" class="edge">
<title>PrismaModule&#45;&gt;HomepageModule</title>
<path fill="none" stroke="black" d="M1124.14,-84.91C1124.14,-94.7 1124.14,-104.8 1124.14,-104.8 1124.14,-104.8 808.32,-104.8 808.32,-104.8 808.32,-104.8 808.32,-114.69 808.32,-114.69"/>
<polygon fill="black" stroke="black" points="804.82,-114.69 808.32,-124.69 811.82,-114.69 804.82,-114.69"/>
</g>
<!-- PrismaModule&#45;&gt;PerfilModule -->
<g id="edge21" class="edge">
<title>PrismaModule&#45;&gt;PerfilModule</title>
<path fill="none" stroke="black" d="M1133.86,-84.85C1133.86,-99.17 1133.86,-116.8 1133.86,-116.8 1133.86,-116.8 943.55,-116.8 943.55,-116.8 943.55,-116.8 943.55,-117.59 943.55,-117.59"/>
<polygon fill="black" stroke="black" points="940.05,-114.74 943.55,-124.74 947.05,-114.74 940.05,-114.74"/>
</g>
<!-- PrismaModule&#45;&gt;UserModule -->
<g id="edge25" class="edge">
<title>PrismaModule&#45;&gt;UserModule</title>
<path fill="none" stroke="black" d="M1079.56,-66.8C1065.35,-66.8 1053.61,-66.8 1053.61,-66.8 1053.61,-66.8 1053.61,-114.79 1053.61,-114.79"/>
<polygon fill="black" stroke="black" points="1050.11,-114.79 1053.61,-124.79 1057.11,-114.79 1050.11,-114.79"/>
</g>
<!-- PrismaService  -->
<g id="node19" class="node">
<title>PrismaService </title>
<polygon fill="#fb8072" stroke="black" points="1602.37,-160.8 1501.63,-160.8 1501.63,-124.8 1602.37,-124.8 1602.37,-160.8"/>
<text text-anchor="middle" x="1552" y="-138.6" font-family="Times,serif" font-size="14.00">PrismaService </text>
</g>
<!-- PrismaModule&#45;&gt;PrismaService  -->
<g id="edge23" class="edge">
<title>PrismaModule&#45;&gt;PrismaService </title>
<path fill="none" stroke="black" stroke-dasharray="5,2" d="M1153.32,-84.99C1153.32,-93.08 1153.32,-100.8 1153.32,-100.8 1153.32,-100.8 1552,-100.8 1552,-100.8 1552,-100.8 1552,-114.74 1552,-114.74"/>
<polygon fill="black" stroke="black" points="1548.5,-114.74 1552,-124.74 1555.5,-114.74 1548.5,-114.74"/>
</g>
<!-- AuthService -->
<g id="node12" class="node">
<title>AuthService</title>
<ellipse fill="#fdb462" stroke="black" cx="1393" cy="-66.8" rx="59.11" ry="18"/>
<text text-anchor="middle" x="1393" y="-62.6" font-family="Times,serif" font-size="14.00">AuthService</text>
</g>
<!-- AuthService&#45;&gt;AuthModule -->
<g id="edge11" class="edge">
<title>AuthService&#45;&gt;AuthModule</title>
<path fill="none" stroke="black" d="M1341.03,-75.72C1341.03,-91.05 1341.03,-120.8 1341.03,-120.8 1341.03,-120.8 1163.05,-120.8 1163.05,-120.8 1163.05,-120.8 1163.05,-121.18 1163.05,-121.18"/>
<polygon fill="black" stroke="black" points="1159.55,-114.63 1163.05,-124.63 1166.55,-114.63 1159.55,-114.63"/>
</g>
<!-- JwtStrategy -->
<g id="node13" class="node">
<title>JwtStrategy</title>
<ellipse fill="#fdb462" stroke="black" cx="1259" cy="-66.8" rx="56.77" ry="18"/>
<text text-anchor="middle" x="1259" y="-62.6" font-family="Times,serif" font-size="14.00">JwtStrategy</text>
</g>
<!-- JwtStrategy&#45;&gt;AuthModule -->
<g id="edge12" class="edge">
<title>JwtStrategy&#45;&gt;AuthModule</title>
<path fill="none" stroke="black" d="M1205.31,-60.8C1196.87,-60.8 1190.86,-60.8 1190.86,-60.8 1190.86,-60.8 1190.86,-148.8 1190.86,-148.8 1190.86,-148.8 1182.64,-148.8 1182.64,-148.8"/>
<polygon fill="black" stroke="black" points="1182.64,-145.3 1172.64,-148.8 1182.64,-152.3 1182.64,-145.3"/>
</g>
<!-- FavoriteService -->
<g id="node14" class="node">
<title>FavoriteService</title>
<ellipse fill="#fdb462" stroke="black" cx="96" cy="-66.8" rx="72.35" ry="18"/>
<text text-anchor="middle" x="96" y="-62.6" font-family="Times,serif" font-size="14.00">FavoriteService</text>
</g>
<!-- FavoriteService&#45;&gt;FavoriteModule -->
<g id="edge14" class="edge">
<title>FavoriteService&#45;&gt;FavoriteModule</title>
<path fill="none" stroke="black" d="M96,-84.81C96,-107.29 96,-142.8 96,-142.8 96,-142.8 364.66,-142.8 364.66,-142.8"/>
<polygon fill="black" stroke="black" points="364.66,-146.3 374.66,-142.8 364.66,-139.3 364.66,-146.3"/>
</g>
<!-- GameService -->
<g id="node15" class="node">
<title>GameService</title>
<ellipse fill="#fdb462" stroke="black" cx="271" cy="-66.8" rx="63.1" ry="18"/>
<text text-anchor="middle" x="271" y="-62.6" font-family="Times,serif" font-size="14.00">GameService</text>
</g>
<!-- GameService&#45;&gt;GameModule -->
<g id="edge16" class="edge">
<title>GameService&#45;&gt;GameModule</title>
<path fill="none" stroke="black" d="M271,-84.98C271,-97.84 271,-112.8 271,-112.8 271,-112.8 505.73,-112.8 505.73,-112.8 505.73,-112.8 505.73,-114.66 505.73,-114.66"/>
<polygon fill="black" stroke="black" points="502.23,-114.66 505.73,-124.66 509.23,-114.66 502.23,-114.66"/>
</g>
<!-- GenerosService -->
<g id="node16" class="node">
<title>GenerosService</title>
<ellipse fill="#fdb462" stroke="black" cx="446" cy="-66.8" rx="72.34" ry="18"/>
<text text-anchor="middle" x="446" y="-62.6" font-family="Times,serif" font-size="14.00">GenerosService</text>
</g>
<!-- GenerosService&#45;&gt;GenerosModule -->
<g id="edge18" class="edge">
<title>GenerosService&#45;&gt;GenerosModule</title>
<path fill="none" stroke="black" d="M511.95,-74.12C511.95,-86.15 511.95,-108.8 511.95,-108.8 511.95,-108.8 646.3,-108.8 646.3,-108.8 646.3,-108.8 646.3,-114.61 646.3,-114.61"/>
<polygon fill="black" stroke="black" points="642.8,-114.61 646.3,-124.61 649.8,-114.61 642.8,-114.61"/>
</g>
<!-- HomepageService -->
<g id="node17" class="node">
<title>HomepageService</title>
<ellipse fill="#fdb462" stroke="black" cx="640" cy="-66.8" rx="81.65" ry="18"/>
<text text-anchor="middle" x="640" y="-62.6" font-family="Times,serif" font-size="14.00">HomepageService</text>
</g>
<!-- HomepageService&#45;&gt;HomepageModule -->
<g id="edge20" class="edge">
<title>HomepageService&#45;&gt;HomepageModule</title>
<path fill="none" stroke="black" d="M722.03,-66.8C737.12,-66.8 748.23,-66.8 748.23,-66.8 748.23,-66.8 748.23,-114.79 748.23,-114.79"/>
<polygon fill="black" stroke="black" points="744.73,-114.79 748.23,-124.79 751.73,-114.79 744.73,-114.79"/>
</g>
<!-- PerfilService -->
<g id="node18" class="node">
<title>PerfilService</title>
<ellipse fill="#fdb462" stroke="black" cx="823" cy="-66.8" rx="61.4" ry="18"/>
<text text-anchor="middle" x="823" y="-62.6" font-family="Times,serif" font-size="14.00">PerfilService</text>
</g>
<!-- PerfilService&#45;&gt;PerfilModule -->
<g id="edge22" class="edge">
<title>PerfilService&#45;&gt;PerfilModule</title>
<path fill="none" stroke="black" d="M878.56,-74.65C878.56,-74.65 878.56,-114.53 878.56,-114.53"/>
<polygon fill="black" stroke="black" points="875.06,-114.53 878.56,-124.53 882.06,-114.53 875.06,-114.53"/>
</g>
<!-- UserService -->
<g id="node20" class="node">
<title>UserService</title>
<ellipse fill="#fdb462" stroke="black" cx="982" cy="-66.8" rx="58.46" ry="18"/>
<text text-anchor="middle" x="982" y="-62.6" font-family="Times,serif" font-size="14.00">UserService</text>
</g>
<!-- UserService&#45;&gt;UserModule -->
<g id="edge26" class="edge">
<title>UserService&#45;&gt;UserModule</title>
<path fill="none" stroke="black" d="M1010.62,-82.55C1010.62,-82.55 1010.62,-114.67 1010.62,-114.67"/>
<polygon fill="black" stroke="black" points="1007.12,-114.67 1010.62,-124.67 1014.12,-114.67 1007.12,-114.67"/>
</g>
</g>
</svg>
